<?xml version="1.0" encoding="utf-8"?>
<!-- Generator: Adobe Illustrator 19.0.0, SVG Export Plug-In . SVG Version: 6.00 Build 0)  -->
<svg version="1.1" id="Ebene_1" xmlns="http://www.w3.org/2000/svg" xmlns:xlink="http://www.w3.org/1999/xlink" x="0px" y="0px"
	 viewBox="0 0 396.8 71.9" style="enable-background:new 0 0 396.8 71.9;" xml:space="preserve">
<style type="text/css">
	.st0{fill:#A0A09F;}
	.st1{fill:#FAB215;}
	.st2{fill:#FFD678;}
	.st3{fill:#FEE4A6;}
	.st4{fill:#FFFFFF;}
</style>
<g id="XMLID_6_">
	<g id="XMLID_9_">
		<path id="XMLID_19_" class="st0" d="M21.5,42.2c0,0.2,0,0.5,0,0.7c0,0.2,0,0.5,0,0.7H4.6c0.1,0.8,0.3,1.5,0.6,2.2
			c0.4,0.7,0.8,1.2,1.4,1.7c0.6,0.5,1.2,0.9,2,1.1c0.7,0.3,1.5,0.4,2.3,0.4c1.4,0,2.5-0.3,3.5-0.8c1-0.5,1.7-1.2,2.3-2.1l3.7,2.9
			c-2.2,2.9-5.3,4.4-9.5,4.4c-1.7,0-3.3-0.3-4.7-0.8s-2.7-1.3-3.7-2.3c-1.1-1-1.9-2.2-2.5-3.6c-0.6-1.4-0.9-3-0.9-4.9
			c0-1.8,0.3-3.4,0.9-4.9c0.6-1.5,1.4-2.7,2.5-3.7c1-1,2.3-1.8,3.7-2.4c1.4-0.6,3-0.9,4.6-0.9c1.5,0,3,0.3,4.3,0.8
			c1.3,0.5,2.4,1.3,3.4,2.3c0.9,1,1.7,2.2,2.2,3.7C21.2,38.5,21.5,40.2,21.5,42.2z M15.9,39.7c0-0.7-0.1-1.4-0.3-2
			c-0.2-0.6-0.5-1.2-0.9-1.7c-0.4-0.5-1-0.9-1.6-1.2c-0.7-0.3-1.4-0.4-2.3-0.4c-1.7,0-3.1,0.5-4.2,1.5c-1.1,1-1.8,2.3-1.9,3.8H15.9z
			"/>
		<path id="XMLID_22_" class="st0" d="M41.3,30.9h5.3v3.7h0.1c0.6-1.3,1.5-2.3,2.6-3.1c1.1-0.8,2.4-1.2,3.9-1.2c0.2,0,0.4,0,0.7,0
			c0.2,0,0.5,0.1,0.6,0.1v5.1c-0.4-0.1-0.7-0.2-0.9-0.2c-0.3,0-0.5,0-0.8,0c-1.3,0-2.3,0.2-3,0.7c-0.8,0.5-1.4,1-1.8,1.7
			c-0.4,0.6-0.7,1.3-0.9,2c-0.2,0.7-0.2,1.2-0.2,1.6V53h-5.5V30.9z"/>
		<path id="XMLID_24_" class="st0" d="M88.6,36.8c-0.5-0.6-1.2-1.2-2-1.7c-0.9-0.5-1.8-0.7-2.8-0.7c-0.9,0-1.7,0.2-2.4,0.6
			c-0.7,0.4-1.1,1-1.1,1.8c0,0.9,0.4,1.5,1.2,1.8s2,0.7,3.6,1.1c0.8,0.2,1.7,0.4,2.5,0.7c0.8,0.3,1.6,0.7,2.3,1.2s1.2,1.1,1.7,1.9
			c0.4,0.8,0.6,1.7,0.6,2.7c0,1.3-0.3,2.5-0.8,3.4c-0.5,0.9-1.2,1.7-2,2.3c-0.8,0.6-1.8,1-2.9,1.3c-1.1,0.3-2.3,0.4-3.5,0.4
			c-1.7,0-3.4-0.3-5-0.9s-3-1.5-4-2.7l3.6-3.4c0.6,0.8,1.4,1.5,2.4,2s2.1,0.8,3.3,0.8c0.4,0,0.8,0,1.2-0.1c0.4-0.1,0.8-0.2,1.1-0.4
			c0.4-0.2,0.6-0.5,0.9-0.8c0.2-0.3,0.3-0.8,0.3-1.2c0-0.9-0.4-1.6-1.3-2c-0.8-0.4-2.1-0.8-3.8-1.2c-0.8-0.2-1.6-0.4-2.4-0.7
			c-0.8-0.3-1.5-0.7-2.1-1.2c-0.6-0.5-1.1-1.1-1.5-1.8c-0.4-0.7-0.6-1.6-0.6-2.6c0-1.2,0.3-2.3,0.8-3.2c0.5-0.9,1.2-1.6,2-2.2
			s1.8-1,2.8-1.3c1-0.3,2.1-0.4,3.2-0.4c1.6,0,3.2,0.3,4.7,0.8c1.5,0.6,2.7,1.4,3.6,2.5L88.6,36.8z"/>
		<path id="XMLID_26_" class="st0" d="M112.1,35.3v-4.4h3.9v-6.4h5.4v6.4h5.5v4.4h-5.5v10.3c0,1,0.2,1.8,0.5,2.4
			c0.4,0.6,1.1,1,2.4,1c0.4,0,0.8,0,1.2-0.1c0.4-0.1,0.8-0.2,1.1-0.3l0.2,4.3c-0.5,0.2-1.1,0.3-1.7,0.4c-0.7,0.1-1.3,0.2-1.9,0.2
			c-1.5,0-2.7-0.2-3.6-0.6s-1.6-1-2.2-1.7c-0.5-0.7-0.9-1.5-1.1-2.5c-0.2-0.9-0.3-1.9-0.3-3V35.3H112.1z"/>
		<path id="XMLID_28_" class="st0" d="M170.4,42.2c0,0.2,0,0.5,0,0.7c0,0.2,0,0.5,0,0.7h-16.8c0.1,0.8,0.3,1.5,0.6,2.2
			c0.4,0.7,0.8,1.2,1.4,1.7c0.6,0.5,1.2,0.9,2,1.1c0.7,0.3,1.5,0.4,2.3,0.4c1.4,0,2.5-0.3,3.5-0.8c1-0.5,1.7-1.2,2.3-2.1l3.7,2.9
			c-2.2,2.9-5.3,4.4-9.5,4.4c-1.7,0-3.3-0.3-4.7-0.8s-2.7-1.3-3.7-2.3c-1.1-1-1.9-2.2-2.5-3.6c-0.6-1.4-0.9-3-0.9-4.9
			c0-1.8,0.3-3.4,0.9-4.9c0.6-1.5,1.4-2.7,2.5-3.7c1-1,2.3-1.8,3.7-2.4c1.4-0.6,3-0.9,4.6-0.9c1.5,0,3,0.3,4.3,0.8
			c1.3,0.5,2.4,1.3,3.4,2.3c0.9,1,1.7,2.2,2.2,3.7C170.1,38.5,170.4,40.2,170.4,42.2z M164.9,39.7c0-0.7-0.1-1.4-0.3-2
			c-0.2-0.6-0.5-1.2-0.9-1.7c-0.4-0.5-1-0.9-1.6-1.2c-0.7-0.3-1.4-0.4-2.3-0.4c-1.7,0-3.1,0.5-4.2,1.5c-1.1,1-1.8,2.3-1.9,3.8H164.9
			z"/>
		<path id="XMLID_31_" class="st0" d="M192.2,18.2h5.5V53h-5.5V18.2z"/>
		<path id="XMLID_33_" class="st0" d="M223,18.2h5.5V53H223V18.2z"/>
	</g>
	<g id="XMLID_147_">
		<path id="XMLID_158_" class="st1" d="M320.5,0h-70.8v37.9v10.3v17.7c0,3.3,2.7,6,6,6h7.7h127.3c3.3,0,6-2.7,6-6V48.2V37.9v-4.5
			V12.5V0H320.5z"/>
		<polygon id="XMLID_2_" class="st2" points="320.5,0 373.2,23 396.8,33.3 396.8,12.5 396.8,0 		"/>
		<polygon id="XMLID_42_" class="st3" points="396.8,33.3 396.8,12.5 373.2,23 		"/>
	</g>
	<g id="XMLID_1_">
		<path id="XMLID_3_" class="st4" d="M276.6,18.2v15.5h0.1c0.3-0.4,0.6-0.8,1.1-1.1c0.4-0.4,0.9-0.8,1.5-1.1
			c0.6-0.3,1.3-0.6,2.1-0.9c0.8-0.2,1.7-0.3,2.7-0.3c1.6,0,3,0.3,4.3,0.9c1.3,0.6,2.5,1.4,3.4,2.5c1,1,1.7,2.3,2.2,3.7
			c0.5,1.4,0.8,2.9,0.8,4.6c0,1.6-0.3,3.2-0.8,4.6c-0.5,1.4-1.2,2.7-2.2,3.7s-2.1,1.9-3.4,2.5s-2.8,0.9-4.5,0.9c-1.6,0-3-0.3-4.4-1
			c-1.4-0.7-2.4-1.7-3.2-2.9h-0.1V53h-5.2V18.2H276.6z M289.3,41.9c0-0.9-0.1-1.7-0.4-2.6s-0.7-1.6-1.2-2.3c-0.5-0.7-1.2-1.2-2-1.6
			c-0.8-0.4-1.7-0.6-2.8-0.6c-1,0-1.9,0.2-2.7,0.6c-0.8,0.4-1.5,1-2,1.7c-0.6,0.7-1,1.4-1.3,2.3c-0.3,0.9-0.4,1.7-0.4,2.6
			c0,0.9,0.1,1.7,0.4,2.6c0.3,0.8,0.7,1.6,1.3,2.3c0.6,0.7,1.2,1.2,2,1.6s1.7,0.6,2.7,0.6c1.1,0,2-0.2,2.8-0.6c0.8-0.4,1.5-1,2-1.7
			s0.9-1.4,1.2-2.3S289.3,42.7,289.3,41.9z"/>
		<path id="XMLID_10_" class="st4" d="M332.3,50.2h-0.1c-0.6,1-1.4,1.8-2.7,2.4c-1.2,0.6-2.6,0.9-4.2,0.9c-0.9,0-1.8-0.1-2.8-0.3
			c-1-0.2-1.9-0.6-2.7-1.2c-0.8-0.5-1.5-1.2-2-2.1c-0.5-0.9-0.8-2-0.8-3.2c0-1.7,0.5-3,1.4-4c0.9-1,2.1-1.7,3.6-2.3
			c1.5-0.5,3.1-0.9,4.9-1c1.8-0.2,3.5-0.3,5.3-0.3v-0.6c0-1.4-0.5-2.4-1.5-3.1c-1-0.7-2.2-1-3.6-1c-1.2,0-2.3,0.2-3.4,0.7
			c-1.1,0.5-2,1.1-2.7,1.8l-2.9-3.4c1.3-1.2,2.7-2,4.3-2.6c1.6-0.6,3.3-0.9,5-0.9c2,0,3.6,0.3,4.9,0.8c1.3,0.6,2.3,1.3,3,2.2
			c0.7,0.9,1.2,1.9,1.5,3c0.3,1.1,0.4,2.2,0.4,3.3V53h-5.2V50.2z M332.2,42.9H331c-0.9,0-1.8,0-2.8,0.1c-1,0.1-1.9,0.2-2.7,0.5
			c-0.8,0.3-1.5,0.6-2.1,1.1c-0.6,0.5-0.8,1.1-0.8,2c0,0.5,0.1,1,0.3,1.3c0.2,0.4,0.5,0.6,0.9,0.9c0.4,0.2,0.8,0.4,1.2,0.5
			c0.5,0.1,0.9,0.1,1.4,0.1c1.9,0,3.3-0.5,4.3-1.5c1-1,1.5-2.4,1.5-4.1V42.9z"/>
		<path id="XMLID_35_" class="st4" d="M362.3,30.9h5.3v3.7h0.1c0.6-1.3,1.5-2.3,2.6-3.1c1.1-0.8,2.4-1.2,3.9-1.2c0.2,0,0.4,0,0.7,0
			c0.2,0,0.5,0.1,0.6,0.1v5.1c-0.4-0.1-0.7-0.2-0.9-0.2c-0.3,0-0.5,0-0.8,0c-1.3,0-2.3,0.2-3,0.7c-0.8,0.5-1.4,1-1.8,1.7
			c-0.4,0.6-0.7,1.3-0.9,2s-0.2,1.2-0.2,1.6V53h-5.5V30.9z"/>
	</g>
</g>
</svg>
